PathFileType	4	(X/Y/Z)	RBDS001\RBDS001runT35.trc
DataRate	CameraRate	NumFrames	NumMarkers	Units	OrigDataRate	OrigDataStartFrame	OrigNumFrames
150.000000	150.000000	4	32	mm	150.000000	1687	4500
Frame#	Time	L.ASIS			L.Heel.Bottom			L.Heel.Lateral			L.Heel.Top			L.Iliac.Crest			L.MT1			L.MT5			L.PSIS			L.Shank.Bottom.Lateral			L.Shank.Bottom.Medial			L.Shank.Top.Lateral			L.Shank.Top.Medial			L.Thigh.Bottom.Lateral			L.Thigh.Bottom.Medial			L.Thigh.Top.Lateral			L.Thigh.Top.Medial			R.ASIS			R.Heel.Bottom			R.Heel.Lateral			R.Heel.Top			R.Iliac.Crest			R.MT1			R.MT5			R.PSIS			R.Shank.Bottom.Lateral			R.Shank.Bottom.Medial			R.Shank.Top.Lateral			R.Shank.Top.Medial			R.Thigh.Bottom.Lateral			R.Thigh.Bottom.Medial			R.Thigh.Top.Lateral			R.Thigh.Top.Medial			
		X1	Y1	Z1	X2	Y2	Z2	X3	Y3	Z3	X4	Y4	Z4	X5	Y5	Z5	X6	Y6	Z6	X7	Y7	Z7	X8	Y8	Z8	X9	Y9	Z9	X10	Y10	Z10	X11	Y11	Z11	X12	Y12	Z12	X13	Y13	Z13	X14	Y14	Z14	X15	Y15	Z15	X16	Y16	Z16	X17	Y17	Z17	X18	Y18	Z18	X19	Y19	Z19	X20	Y20	Z20	X21	Y21	Z21	X22	Y22	Z22	X23	Y23	Z23	X24	Y24	Z24	X25	Y25	Z25	X26	Y26	Z26	X27	Y27	Z27	X28	Y28	Z28	X29	Y29	Z29	X30	Y30	Z30	X31	Y31	Z31	X32	Y32	Z32	

1688	11.24666666666667	2396.083726784085	988.7075629816952	929.8624167624214	2064.655112778809	48.21996428553354	1065.673488390284	2087.405458634314	62.81297401840354	1021.53344298737	2078.959998441614	94.11638591148004	1067.286551213146	2336.006777955104	1054.940915317122	902.5553412889383	2292.15217583956	44.79191063327924	1070.95750924846	2240.906141915996	47.28229469152556	973.4147793114192	2232.985272737787	1033.301017651214	1015.40614994189	2196.282675006514	168.7380049235961	989.0940864765319	2158.485735486462	193.1949013844045	1014.237609287535	2228.190044509543	238.1799682503705	962.3182891968073	2191.79371446191	266.8845471308114	989.6815699844994	2331.725326578878	588.6214386779251	910.561807610923	2287.197014320987	585.7937828186739	969.0371573308566	2298.654653657263	693.0884528151568	894.7664236859904	2258.792949798985	691.5648592988269	950.922132104092	2406.775332364243	968.848572493796	1139.973870185449	1983.708061157643	474.763666155386	1109.908307955602	2007.071786989708	452.6605813458631	1155.545463860803	2032.696319787339	472.7310542154465	1108.761179976674	2353.043761715711	1042.48227629028	1178.551336242534	2038.5808788134	285.682492579396	1186.706501212528	2046.176681194868	259.2311080691696	1080.937387356241	2240.820413331525	1025.577810593327	1089.839851856392	2146.792751216009	432.2098664650828	1160.597809791332	2139.489500787939	473.2479125347582	1125.816788038004	2224.166374906195	456.1573317470262	1170.483422634627	2215.979695425213	496.5638318893407	1135.818657761654	2459.54064034513	572.3285098763102	1183.058674342769	2409.032622465167	549.7765937899051	1134.355167754968	2400.776588859452	664.8979638144119	1198.766981625736	2350.082042862279	640.4566008985141	1156.435066920721	
1689	11.25333333333333	2395.715823746489	990.2890371409873	929.6269856108232	2041.468754628928	52.2600838927356	1065.169216420357	2064.475131847942	66.0398000370603	1020.882505326434	2056.566970388511	97.92791687325152	1066.366624519631	2336.722155245768	1057.631064158864	902.7122863873851	2268.220018118375	44.63619623645574	1070.798152506885	2217.32585545738	47.25594132847759	973.3518170693893	2233.15036385832	1036.56960989375	1015.596960181853	2174.60173313806	171.6231037103439	988.5382527328261	2137.18414316752	196.5411866590819	1013.850966534455	2207.569799685552	240.7016454836624	961.9877125556006	2171.537918691271	269.8546796394887	989.440435372954	2319.35852738061	590.0329064457536	910.485609926802	2274.619829732577	588.5689652774719	968.9001553961797	2289.813320232525	695.6475591049909	894.9199883047871	2249.957626349711	695.3980561924816	951.1026448481575	2406.954976686556	972.2909792365994	1139.570389448455	1996.12952726969	461.5089331696617	1110.173343814827	2020.877076759474	440.6168109861595	1155.5210306067	2045.101255493509	462.0612849499396	1108.476758908088	2352.770862901598	1045.960027176631	1178.569755433196	2060.980283145562	275.5299405589769	1187.026643796536	2069.24389948115	249.3955594185872	1081.161950021696	2240.946002922862	1029.171044600082	1090.07937424728	2161.500356116348	426.4417637042538	1160.381700489681	2152.415538016159	467.2585509958223	1125.741600940442	2237.801836505962	453.6244814686568	1170.279468314924	2227.864689736463	493.759419848736	1135.72660960905	2469.780681592477	580.4250398144897	1183.123662342301	2419.742413001272	556.125919109697	1134.838674897483	2408.279079473101	671.1095601146736	1199.022478754345	2357.860542645576	644.9884211078122	1157.115273351908	
1690	11.26	2395.636955184827	992.3663041012402	929.278073199352	2018.53146448043	57.17411605542259	1064.593474120737	2041.857430043601	69.97177286166651	1020.162437428048	2034.588772748769	102.5250683131762	1065.344209868473	2337.809994329336	1060.754283353224	902.8700714042919	2244.28228764559	44.52521645573556	1070.652771188445	2193.851454747714	47.28414624424932	973.2774744782412	2233.621732350599	1040.285879479717	1015.879916692373	2153.163287069639	175.2004922047807	987.983367035026	2116.102373258586	200.4740582796399	1013.518698525113	2187.047293859305	243.9903940349374	961.7242984446663	2151.35479179181	273.4869461044304	989.3211621583034	2306.929041801548	592.29774382701	910.5135423459242	2262.035192247431	592.2743706649945	968.8836486495076	2281.05900174188	698.9513467454258	895.1470281130242	2241.231881776167	700.0194292956364	951.3387919155234	2407.519036573158	976.3066857810677	1139.033641024619	2008.900102195273	447.1502651360296	1110.149807211083	2034.894499646092	427.544699751448	1155.211579083429	2057.713351000445	450.3871013003221	1108.014968146258	2353.024098302281	1050.013577999704	1178.535847007168	2083.630328758504	264.8851342364537	1186.989822216766	2092.857932286223	239.1860382195492	1081.02067131606	2241.430343749904	1033.24243074514	1090.398054994019	2176.131836148071	420.1344231055699	1160.014504385312	2165.156573342811	460.6062936131198	1125.494547055345	2251.117448869647	450.7544809041075	1169.967936952474	2239.343986392004	490.4788374485291	1135.486758483467	2479.406220356127	588.9278005525745	1183.088222910331	2429.833379310061	563.0854983386354	1135.159323145376	2415.473561448523	677.8015244507554	1199.246015092044	2365.36804698246	650.2389087090658	1157.643499710861	
1691	11.26666666666667	2395.864735894366	994.929018524364	928.8430475078246	1995.974955460229	63.02806212812682	1063.927460629843	2019.676476221385	74.6547451710401	1019.360636057011	2013.167650876471	107.9489018155888	1064.195665652661	2339.222451429658	1064.279546430968	903.0599613356291	2220.38143995677	44.44843070949697	1070.508235243435	2170.545739604323	47.35286200279266	973.1706879086975	2234.401194037124	1044.39909262806	1016.252667814099	2132.114958260658	179.4833623079054	987.3674098619921	2095.396098795544	205.0055205104433	1013.186812323676	2166.774176288538	248.0602778674932	961.4762231179647	2131.409978666042	277.7935406254514	989.2809411421388	2294.584526092479	595.4226435382847	910.6337419770554	2249.593291522325	596.9078764366012	968.966267802232	2272.504239143802	702.9825996725867	895.4224087494771	2232.737762140585	705.4053649785801	951.6092817235349	2408.437723753767	980.8627703133527	1138.395699037708	2022.140862445888	431.7762856242377	1109.849363652593	2049.251214399891	413.5211410466682	1154.637393766167	2070.648937897178	437.7660853176408	1107.399665776185	2353.763920559295	1054.602742018782	1178.4656872326	2106.588600438356	253.8444430385643	1186.60482115528	2117.028813925664	228.7265847030659	1080.527122681996	2242.260300022984	1037.737961900517	1090.786000570108	2190.754381003852	413.307034639926	1159.494152887684	2177.801791012898	453.3026969236657	1125.078740966484	2264.159759762008	447.5164925748429	1169.551261812226	2250.489516900911	486.6827345261926	1135.101911995575	2488.397822505107	597.6922488164074	1182.955482543155	2439.260814288745	570.5246938217315	1135.317072357421	2422.337390281052	684.8645421426216	1199.451651482741	2372.581950258465	656.1058378082033	1158.028164452242	
